<?xml version="1.0" encoding="utf-8"?>
<!-- Generator: Adobe Illustrator 12.0.0, SVG Export Plug-In  -->
<!DOCTYPE svg PUBLIC "-//W3C//DTD SVG 1.1//EN" "http://www.w3.org/Graphics/SVG/1.1/DTD/svg11.dtd" [
	<!ENTITY ns_flows "http://ns.adobe.com/Flows/1.0/">
	<!ENTITY ns_svg "http://www.w3.org/2000/svg">
	<!ENTITY ns_xlink "http://www.w3.org/1999/xlink">
]>
<svg  version="1.1" xmlns="&ns_svg;" xmlns:xlink="&ns_xlink;" xmlns:a="http://ns.adobe.com/AdobeSVGViewerExtensions/3.0/"
	 width="203" height="72" viewBox="312.383 543.245 203 72" enable-background="new 312.383 543.245 203 72" xml:space="preserve">
<defs>
</defs>
<polygon fill="#213A69" points="313.348,607.772 315.076,607.772 315.076,600.069 313.282,600.069 313.282,598.096 317.232,598.096 
	317.232,607.772 318.828,607.772 318.828,609.614 313.348,609.614 "/>
<g>
	<defs>
		<rect id="XMLID_77_" width="822.047" height="1162.601"/>
	</defs>
	<clipPath id="XMLID_80_">
		<use xlink:href="#XMLID_77_" />
	</clipPath>
	<path clip-path="url(#XMLID_80_)" fill="#213A69" d="M327.403,606.045v-1.729c-0.51,0.79-1.759,1.218-2.665,1.218
		c-2.32,0-4.756-0.971-4.756-3.835c0-2.55,2.453-3.818,4.775-3.818c2.352,0,4.804,1.269,4.804,3.852v4.295
		c0,2.568-2.371,3.77-4.742,3.77c-2.501,0-4.787-0.987-4.787-3.408h2.172c0,1.021,1.349,1.53,2.583,1.53
		c1.3,0.018,2.616-0.691,2.616-1.941V606.045z M322.138,601.699c0,1.268,1.151,1.941,2.6,1.941c1.448,0,2.681-0.659,2.665-1.941
		c-0.016-1.269-1.233-1.877-2.646-1.877C323.389,599.822,322.138,600.431,322.138,601.699"/>
	<path clip-path="url(#XMLID_80_)" fill="#213A69" d="M333.134,601.634v1.726c0.51-0.788,1.761-1.215,2.665-1.215
		c2.322,0,4.758,0.971,4.758,3.833c0,2.551-2.453,3.819-4.774,3.819c-2.353,0-4.804-1.269-4.804-3.853v-4.295
		c0-2.566,2.37-3.769,4.739-3.769c2.501,0,4.723,0.988,4.723,3.407h-2.173c0-1.021-1.283-1.53-2.517-1.53
		c-1.3-0.017-2.617,0.69-2.617,1.941V601.634z M338.4,605.978c0-1.266-1.152-1.941-2.602-1.941c-1.448,0-2.681,0.658-2.665,1.941
		c0.015,1.268,1.232,1.878,2.648,1.878C337.15,607.855,338.4,607.245,338.4,605.978"/>
	<path clip-path="url(#XMLID_80_)" fill="#213A69" d="M343.538,603.674c-0.987-0.526-1.448-1.381-1.448-2.271
		c0-2.319,2.14-3.505,4.64-3.505c2.486,0,4.724,1.2,4.724,3.505c0,0.792-0.445,1.745-1.481,2.173
		c1.184,0.478,1.729,1.679,1.745,2.566c0.05,2.685-2.419,3.753-4.988,3.737c-2.5-0.018-5.002-1.037-4.954-3.737
		C341.793,605.254,342.353,604.151,343.538,603.674 M344.047,606.176c-0.017,0.887,0.939,1.728,2.7,1.728
		c1.76,0,2.715-0.823,2.698-1.728c-0.016-1.136-1.249-1.647-2.698-1.647C345.397,604.528,344.065,605.04,344.047,606.176
		 M346.748,602.951c1.333,0,2.402-0.611,2.436-1.613c0.032-0.972-0.987-1.63-2.454-1.63c-1.628,0-2.451,0.838-2.418,1.63
		C344.345,602.34,345.479,602.951,346.748,602.951"/>
	<polygon clip-path="url(#XMLID_80_)" fill="#213A69" points="353.268,598.096 355.341,598.096 354.056,601.798 352.477,601.798 	
		"/>
	<path clip-path="url(#XMLID_80_)" fill="#213A69" d="M364.804,598.11v11.504h-1.877l-0.13-1.118
		c-0.625,0.971-1.631,1.299-2.618,1.299c-2.385,0-4.178-1.578-4.178-4.246c0-2.796,1.759-4.244,4.13-4.244
		c0.855,0,2.189,0.461,2.667,1.299v-4.493H364.804z M358.006,605.549c0,1.416,1.021,2.388,2.305,2.388
		c1.268,0,2.353-0.921,2.353-2.388c0-1.414-1.085-2.368-2.353-2.368C359.027,603.181,358.006,604.087,358.006,605.549"/>
	<path clip-path="url(#XMLID_80_)" fill="#213A69" d="M368.329,606.275c0.132,1.002,1.003,1.728,2.42,1.728
		c0.74,0,1.711-0.281,2.172-0.758l1.285,1.268c-0.858,0.888-2.256,1.316-3.492,1.316c-2.796,0-4.458-1.728-4.458-4.328
		c0-2.469,1.68-4.244,4.312-4.244c2.716,0,4.411,1.677,4.098,5.019H368.329z M372.739,604.612c-0.131-1.054-0.954-1.58-2.106-1.58
		c-1.086,0-1.975,0.526-2.272,1.58H372.739z"/>
	<path clip-path="url(#XMLID_80_)" fill="#213A69" d="M382.073,609.616v-4.247c0-1.234-0.674-2.171-1.959-2.171
		c-1.235,0-2.073,1.035-2.073,2.269v4.149h-1.991v-8.131h1.793l0.131,1.103c0.823-0.806,1.646-1.219,2.667-1.219
		c1.91,0,3.438,1.433,3.438,3.983v4.264H382.073z"/>
	<path clip-path="url(#XMLID_80_)" fill="#213A69" d="M390.913,598.11v4.493c0.477-0.838,1.812-1.299,2.667-1.299
		c2.369,0,4.13,1.448,4.13,4.244c0,2.668-1.793,4.246-4.179,4.246c-0.988,0-1.992-0.328-2.617-1.299l-0.131,1.118h-1.877V598.11
		H390.913z M391.045,605.549c0,1.467,1.085,2.388,2.354,2.388c1.285,0,2.303-0.972,2.303-2.388c0-1.462-1.019-2.368-2.303-2.368
		C392.13,603.181,391.045,604.135,391.045,605.549"/>
	<path clip-path="url(#XMLID_80_)" fill="#213A69" d="M401.137,601.503v4.245c0,1.234,0.674,2.171,1.958,2.171
		c1.234,0,2.074-1.036,2.074-2.27v-4.146h1.99v8.129h-1.792l-0.132-1.104c-0.84,0.823-1.613,1.22-2.748,1.22
		c-1.943,0-3.357-1.467-3.357-3.983v-4.262H401.137z"/>
	<path clip-path="url(#XMLID_80_)" fill="#213A69" d="M415.194,600.679l1.48,1.119l-0.903,1.153
		c0.622,0.707,0.855,1.513,0.855,2.401c0,1.004-0.38,2.42-1.712,3.028c1.35,0.674,1.678,1.646,1.678,2.682
		c0,2.239-1.712,3.62-4.064,3.62s-4.114-1.432-4.114-3.62h1.99c0,1.056,0.971,1.746,2.124,1.746c1.151,0,2.057-0.626,2.057-1.746
		c0-1.118-1.052-1.628-2.057-1.628c-2.536,0-4.114-1.548-4.114-4.082s1.844-4.112,4.114-4.112c0.642,0,1.299,0.081,1.859,0.459
		L415.194,600.679z M410.404,605.353c0,1.416,0.955,2.252,2.124,2.252c1.151,0,2.106-0.853,2.106-2.252
		c0-1.398-0.955-2.288-2.106-2.288C411.359,603.064,410.404,603.937,410.404,605.353"/>
	<path clip-path="url(#XMLID_80_)" fill="#213A69" d="M419.854,601.503v4.245c0,1.234,0.672,2.173,1.959,2.173
		c1.233,0,2.074-1.038,2.074-2.272v-4.146h1.99v8.129h-1.795l-0.131-1.104c-0.841,0.823-1.613,1.22-2.75,1.22
		c-1.941,0-3.355-1.467-3.355-3.983v-4.262H419.854z M418.733,599.002c0,1.512,2.304,1.512,2.304,0
		C421.037,597.472,418.733,597.472,418.733,599.002 M422.833,599.002c0,1.512,2.305,1.512,2.305,0
		C425.137,597.472,422.833,597.472,422.833,599.002"/>
	<path clip-path="url(#XMLID_80_)" fill="#213A69" d="M433.565,609.616v-4.247c0-1.234-0.676-2.171-1.959-2.171
		c-1.233,0-2.074,1.035-2.074,2.269v4.149h-1.989v-8.131h1.793l0.133,1.103c0.823-0.806,1.646-1.219,2.663-1.219
		c1.912,0,3.44,1.433,3.44,3.983v4.264H433.565z"/>
	<path clip-path="url(#XMLID_80_)" fill="#213A69" d="M438.902,606.275c0.129,1.002,1,1.728,2.418,1.728
		c0.741,0,1.71-0.281,2.172-0.758l1.284,1.268c-0.857,0.888-2.256,1.316-3.491,1.316c-2.796,0-4.458-1.728-4.458-4.328
		c0-2.469,1.68-4.244,4.313-4.244c2.715,0,4.408,1.677,4.097,5.019H438.902z M443.309,604.612c-0.131-1.054-0.952-1.58-2.106-1.58
		c-1.086,0-1.974,0.526-2.272,1.58H443.309z"/>
	<path clip-path="url(#XMLID_80_)" fill="#213A69" d="M456.249,600.679l1.48,1.119l-0.904,1.153
		c0.626,0.707,0.856,1.513,0.856,2.401c0,1.004-0.38,2.42-1.711,3.028c1.348,0.674,1.677,1.646,1.677,2.682
		c0,2.239-1.712,3.62-4.064,3.62c-2.354,0-4.113-1.432-4.113-3.62h1.991c0,1.056,0.97,1.746,2.122,1.746
		c1.151,0,2.057-0.626,2.057-1.746c0-1.118-1.052-1.628-2.057-1.628c-2.533,0-4.113-1.548-4.113-4.082s1.844-4.112,4.113-4.112
		c0.641,0,1.302,0.081,1.859,0.459L456.249,600.679z M451.46,605.353c0,1.416,0.954,2.252,2.122,2.252
		c1.151,0,2.107-0.853,2.107-2.252c0-1.398-0.956-2.288-2.107-2.288C452.415,603.064,451.46,603.937,451.46,605.353"/>
	<path clip-path="url(#XMLID_80_)" fill="#213A69" d="M460.908,601.503v4.245c0,1.234,0.676,2.173,1.959,2.173
		c1.234,0,2.074-1.038,2.074-2.272v-4.146h1.991v8.129h-1.795l-0.129-1.104c-0.843,0.823-1.613,1.22-2.751,1.22
		c-1.941,0-3.355-1.467-3.355-3.983v-4.262H460.908z M459.789,599.002c0,1.512,2.305,1.512,2.305,0
		C462.093,597.472,459.789,597.472,459.789,599.002 M463.887,599.002c0,1.512,2.304,1.512,2.304,0
		C466.191,597.472,463.887,597.472,463.887,599.002"/>
	<polygon clip-path="url(#XMLID_80_)" fill="#213A69" points="477.056,601.485 473.599,609.648 471.427,609.648 467.954,601.485 
		470.143,601.485 471.263,604.169 472.514,607.59 473.748,604.2 474.869,601.485 	"/>
	<path clip-path="url(#XMLID_80_)" fill="#213A69" d="M479.626,606.275c0.13,1.002,1.003,1.728,2.42,1.728
		c0.739,0,1.709-0.281,2.171-0.758l1.285,1.268c-0.858,0.888-2.256,1.316-3.492,1.316c-2.796,0-4.458-1.728-4.458-4.328
		c0-2.469,1.679-4.244,4.313-4.244c2.715,0,4.409,1.677,4.098,5.019H479.626z M484.035,604.612c-0.131-1.054-0.951-1.58-2.104-1.58
		c-1.088,0-1.977,0.526-2.272,1.58H484.035z"/>
	<path clip-path="url(#XMLID_80_)" fill="#213A69" d="M493.37,609.616v-4.247c0-1.234-0.675-2.171-1.959-2.171
		c-1.235,0-2.073,1.035-2.073,2.269v4.149h-1.991v-8.131h1.794l0.131,1.103c0.822-0.806,1.648-1.219,2.667-1.219
		c1.911,0,3.438,1.433,3.438,3.983v4.264H493.37z"/>
	<rect x="496.991" y="598.113" clip-path="url(#XMLID_80_)" fill="#213A69" width="1.993" height="11.501"/>
	<path clip-path="url(#XMLID_80_)" fill="#213A69" d="M502.345,606.275c0.128,1.002,1.001,1.728,2.417,1.728
		c0.741,0,1.71-0.281,2.171-0.758l1.286,1.268c-0.859,0.888-2.257,1.316-3.491,1.316c-2.798,0-4.458-1.728-4.458-4.328
		c0-2.469,1.679-4.244,4.312-4.244c2.716,0,4.41,1.677,4.099,5.019H502.345z M506.753,604.612c-0.134-1.054-0.954-1.58-2.105-1.58
		c-1.087,0-1.977,0.526-2.273,1.58H506.753z"/>
	<path clip-path="url(#XMLID_80_)" fill="#F47920" d="M513.003,555.297c-0.063-0.064-0.152-0.118-0.259-0.164
		c0.264-0.02,0.476-0.113,0.636-0.278c0.159-0.167,0.238-0.361,0.238-0.583c0-0.159-0.046-0.308-0.142-0.45
		c-0.097-0.14-0.225-0.239-0.385-0.296c-0.161-0.056-0.42-0.083-0.782-0.083h-1.049v3.058h0.493v-1.298h0.29
		c0.173,0,0.306,0.034,0.396,0.105c0.128,0.096,0.302,0.333,0.514,0.71l0.271,0.482h0.605l-0.374-0.598
		C513.277,555.618,513.126,555.416,513.003,555.297 M512.353,554.78h-0.599v-0.922h0.56c0.243,0,0.407,0.017,0.498,0.053
		c0.089,0.034,0.157,0.088,0.207,0.158c0.052,0.072,0.075,0.155,0.075,0.244c0,0.142-0.053,0.254-0.155,0.34
		C512.833,554.735,512.64,554.78,512.353,554.78"/>
	<path clip-path="url(#XMLID_80_)" fill="#F47920" d="M514.966,553.505c-0.252-0.457-0.607-0.806-1.061-1.052
		c-0.455-0.245-0.92-0.365-1.397-0.365s-0.943,0.12-1.398,0.365c-0.456,0.246-0.811,0.595-1.063,1.052
		c-0.255,0.455-0.385,0.929-0.385,1.426c0,0.49,0.126,0.96,0.379,1.413c0.251,0.451,0.602,0.801,1.054,1.052
		c0.45,0.25,0.922,0.375,1.414,0.375c0.491,0,0.962-0.125,1.413-0.375s0.8-0.601,1.051-1.052c0.251-0.452,0.376-0.923,0.376-1.413
		C515.348,554.435,515.221,553.96,514.966,553.505 M514.564,556.106c-0.208,0.376-0.499,0.669-0.877,0.879
		c-0.377,0.21-0.77,0.315-1.179,0.315c-0.412,0-0.802-0.105-1.18-0.315c-0.377-0.209-0.671-0.503-0.88-0.879
		c-0.209-0.375-0.316-0.767-0.316-1.175c0-0.414,0.108-0.809,0.322-1.189c0.214-0.379,0.509-0.672,0.887-0.877
		c0.379-0.204,0.768-0.308,1.167-0.308c0.396,0,0.784,0.104,1.165,0.308c0.377,0.205,0.674,0.498,0.885,0.877
		c0.214,0.381,0.318,0.776,0.318,1.189C514.876,555.34,514.773,555.731,514.564,556.106"/>
	<path clip-path="url(#XMLID_80_)" fill="#F47920" d="M313.083,552.869h11.225v24.814c0,1.861,1.525,3.386,3.386,3.386h6.772
		c1.861,0,3.386-1.524,3.386-3.386v-24.814h11.226v24.515c0,6.436-5.268,11.701-11.697,11.701h-12.601
		c-6.431,0-11.697-5.265-11.697-11.701V552.869z M339.96,548.742h-5.962v-5.299h5.962V548.742z M328.156,548.742h-5.962v-5.299
		h5.962V548.742z"/>
	<polygon clip-path="url(#XMLID_80_)" fill="#F47920" points="397.496,589.082 378.723,589.082 366.45,561.149 366.45,589.082 
		355.876,589.082 355.876,552.864 374.76,552.864 387.031,580.939 387.031,552.864 397.496,552.864 	"/>
	<polygon clip-path="url(#XMLID_80_)" fill="#F47920" points="433.981,561.432 422.763,561.432 422.763,589.082 411.681,589.082 
		411.681,561.432 400.962,561.432 400.962,552.875 433.981,552.875 	"/>
	<polygon clip-path="url(#XMLID_80_)" fill="#F47920" points="467.677,589.082 437.694,589.082 437.694,552.859 467.677,552.859 
		467.677,560.728 448.335,560.728 448.335,567.656 466.203,567.656 466.203,574.267 448.335,574.267 448.335,581.583 
		467.677,581.583 	"/>
	<path clip-path="url(#XMLID_80_)" fill="#F47920" d="M497.583,563.853h10.511c0,0,0.598-10.521-8.12-10.968H482.24
		c0,0-7.721,0.299-8.02,7.641v6.254c0,0,0.102,7.046,9.364,7.294l9.912,0.546c0,0,5.031-0.446,4.932,3.374
		c-0.099,3.821-3.037,3.723-3.037,3.723l-7.869,0.099c0,0-3.489-0.25-3.339-4.316h-10.71c0,0,0.051,4.466,1.344,6.946
		c1.297,2.48,3.486,4.566,8.768,4.614c5.282,0.051,14.446,0,14.446,0s9.514-0.196,10.909-6.796v-8.139c0,0,0.997-4.962-7.722-6.45
		c0,0-9.962-0.646-12.703-0.795c-2.738-0.148-4.182-1.488-4.133-3.175c0.049-1.688,0.199-3.424,5.132-3.375
		C494.442,560.378,497.083,559.436,497.583,563.853"/>
</g>
</svg>
